<svg xmlns="http://www.w3.org/2000/svg" viewBox="0 0 24 24" aria-hidden="true" focusable="false">
  <path fill="#0f172a" d="M12 .5C5.65.5.5 5.65.5 12c0 5.1 3.29 9.42 7.86 10.95.58.1.79-.25.79-.56 0-.28-.01-1.02-.02-2-3.2.7-3.88-1.54-3.88-1.54-.53-1.34-1.29-1.7-1.29-1.7-1.05-.72.08-.71.08-.71 1.16.08 1.77 1.2 1.77 1.2 1.03 1.77 2.7 1.26 3.36.96.1-.75.4-1.26.73-1.55-2.55-.29-5.23-1.28-5.23-5.68 0-1.25.45-2.28 1.2-3.08-.12-.3-.52-1.5.11-3.13 0 0 .98-.31 3.2 1.18.93-.26 1.92-.39 2.9-.4.98 0 1.98.14 2.9.4 2.2-1.49 3.18-1.18 3.18-1.18.63 1.63.23 2.83.12 3.13.74.8 1.2 1.83 1.2 3.08 0 4.41-2.7 5.38-5.27 5.66.41.35.78 1.04.78 2.1 0 1.52-.02 2.75-.02 3.12 0 .31.2.67.8.56C20.22 21.41 23.5 17.1 23.5 12c0-6.35-5.15-11.5-11.5-11.5Z"/>
</svg>
